<svg xmlns="http://www.w3.org/2000/svg" width="180" height="62" viewBox="0 0 180 62" fill="none">
    <path d="M173.333 61.333H6.66667C3 61.333 0 57.9205 0 53.7497V8.24977C0 4.07895 3 0.666458 6.66667 0.666458H173.333C177 0.666458 180 4.07895 180 8.24977V53.7497C180 57.9205 177 61.333 173.333 61.333Z"
          fill="black"/>
    <path d="M173.333 0.666702H6.66667C3 0.666702 0 4.07919 0 8.25002V53.7499C0 57.9208 3 61.3333 6.66667 61.3333H173.333C177 61.3333 180 57.9208 180 53.7499V8.25002C180 4.07919 177 0.666702 173.333 0.666702ZM173.333 1.88003C176.421 1.88003 178.933 4.73743 178.933 8.25002V53.7499C178.933 57.2625 176.421 60.1199 173.333 60.1199H6.66667C3.57867 60.1199 1.06667 57.2625 1.06667 53.7499V8.25002C1.06667 4.73743 3.57867 1.88003 6.66667 1.88003H173.333Z"
          fill="#A6A6A6"/>
    <path d="M142.581 44.1796H145.069V27.5116H142.581V44.1796ZM164.991 33.5156L162.139 40.7423H162.053L159.093 33.5156H156.413L160.852 43.6156L158.323 49.2343H160.916L167.757 33.5156H164.991ZM150.881 42.2863C150.065 42.2863 148.929 41.8796 148.929 40.8703C148.929 39.5849 150.344 39.0916 151.567 39.0916C152.66 39.0916 153.176 39.3276 153.84 39.6489C153.647 41.1929 152.317 42.2863 150.881 42.2863ZM151.181 33.1516C149.38 33.1516 147.513 33.9449 146.743 35.7036L148.951 36.6249C149.423 35.7036 150.301 35.4023 151.224 35.4023C152.511 35.4023 153.819 36.1743 153.84 37.5476V37.7183C153.389 37.4609 152.425 37.0756 151.245 37.0756C148.865 37.0756 146.441 38.3836 146.441 40.8276C146.441 43.0583 148.393 44.4956 150.58 44.4956C152.253 44.4956 153.176 43.7449 153.755 42.8649H153.84V44.1516H156.241V37.7609C156.241 34.8023 154.033 33.1516 151.181 33.1516ZM135.805 35.5449H132.267V29.8316H135.805C137.665 29.8316 138.721 31.3716 138.721 32.6876C138.721 33.9796 137.665 35.5449 135.805 35.5449ZM135.741 27.5116H129.78V44.1796H132.267V37.8649H135.741C138.499 37.8649 141.209 35.8676 141.209 32.6876C141.209 29.5076 138.499 27.5116 135.741 27.5116ZM103.233 42.2889C101.515 42.2889 100.076 40.8503 100.076 38.8743C100.076 36.8769 101.515 35.4156 103.233 35.4156C104.931 35.4156 106.261 36.8769 106.261 38.8743C106.261 40.8503 104.931 42.2889 103.233 42.2889ZM106.091 34.4489H106.004C105.445 33.7836 104.372 33.1823 103.019 33.1823C100.183 33.1823 97.584 35.6729 97.584 38.8743C97.584 42.0529 100.183 44.5236 103.019 44.5236C104.372 44.5236 105.445 43.9223 106.004 43.2343H106.091V44.0516C106.091 46.2209 104.931 47.3809 103.061 47.3809C101.536 47.3809 100.591 46.2849 100.204 45.3609L98.0347 46.2636C98.6573 47.7676 100.312 49.6143 103.061 49.6143C105.983 49.6143 108.453 47.8956 108.453 43.7076V33.5249H106.091V34.4489ZM110.172 44.1796H112.664V27.5103H110.172V44.1796ZM116.336 38.6809C116.272 36.4903 118.033 35.3729 119.3 35.3729C120.289 35.3729 121.127 35.8663 121.405 36.5756L116.336 38.6809ZM124.069 36.7903C123.597 35.5236 122.157 33.1823 119.215 33.1823C116.293 33.1823 113.867 35.4796 113.867 38.8529C113.867 42.0316 116.272 44.5236 119.493 44.5236C122.093 44.5236 123.597 42.9343 124.22 42.0103L122.287 40.7209C121.643 41.6663 120.761 42.2889 119.493 42.2889C118.227 42.2889 117.324 41.7089 116.744 40.5716L124.327 37.4343L124.069 36.7903ZM63.6587 34.9223V37.3276H69.4147C69.2427 38.6809 68.792 39.6689 68.1053 40.3556C67.2667 41.1943 65.956 42.1183 63.6587 42.1183C60.1133 42.1183 57.3427 39.2609 57.3427 35.7169C57.3427 32.1716 60.1133 29.3156 63.6587 29.3156C65.5707 29.3156 66.9667 30.0676 67.9973 31.0343L69.6947 29.3369C68.2547 27.9623 66.344 26.9089 63.6587 26.9089C58.804 26.9089 54.7227 30.8623 54.7227 35.7169C54.7227 40.5716 58.804 44.5236 63.6587 44.5236C66.2787 44.5236 68.2547 43.6636 69.8013 42.0529C71.392 40.4636 71.8853 38.2303 71.8853 36.4249C71.8853 35.8663 71.8427 35.3516 71.756 34.9223H63.6587ZM78.4307 42.2889C76.712 42.2889 75.2293 40.8716 75.2293 38.8529C75.2293 36.8116 76.712 35.4156 78.4307 35.4156C80.148 35.4156 81.6307 36.8116 81.6307 38.8529C81.6307 40.8716 80.148 42.2889 78.4307 42.2889ZM78.4307 33.1823C75.2933 33.1823 72.7373 35.5663 72.7373 38.8529C72.7373 42.1183 75.2933 44.5236 78.4307 44.5236C81.5667 44.5236 84.1227 42.1183 84.1227 38.8529C84.1227 35.5663 81.5667 33.1823 78.4307 33.1823ZM90.848 42.2889C89.1293 42.2889 87.6467 40.8716 87.6467 38.8529C87.6467 36.8116 89.1293 35.4156 90.848 35.4156C92.5667 35.4156 94.048 36.8116 94.048 38.8529C94.048 40.8716 92.5667 42.2889 90.848 42.2889ZM90.848 33.1823C87.712 33.1823 85.156 35.5663 85.156 38.8529C85.156 42.1183 87.712 44.5236 90.848 44.5236C93.984 44.5236 96.54 42.1183 96.54 38.8529C96.54 35.5663 93.984 33.1823 90.848 33.1823Z"
          fill="white"/>
    <mask id="mask0_658_472" style="mask-type:luminance" maskUnits="userSpaceOnUse" x="13" y="36" width="24"
          height="12">
        <path d="M13.9136 36.3554H36.1622V47.9946H13.9136V36.3554Z" fill="white"/>
    </mask>
    <g mask="url(#mask0_658_472)">
        <g opacity="0.199997">
            <path d="M36.0381 36.3553L16.6847 47.3513C15.6021 47.9673 14.6341 47.926 14.0127 47.366L13.9141 47.466L14.0127 47.562C14.6341 48.122 15.6021 48.162 16.6847 47.546L36.1621 36.4793L36.0381 36.3553Z"
                  fill="black"/>
        </g>
    </g>
    <mask id="mask1_658_472" style="mask-type:luminance" maskUnits="userSpaceOnUse" x="13" y="45" width="2" height="3">
        <path d="M13.2966 45.3973H14.013V47.4653H13.2966V45.3973Z" fill="white"/>
    </mask>
    <g mask="url(#mask1_658_472)">
        <g opacity="0.119995">
            <path d="M13.9137 47.2704C13.5257 46.8598 13.2964 46.2224 13.2964 45.3971V45.5918C13.2964 46.4171 13.5257 47.0544 13.9137 47.4651L14.0137 47.3664L13.9137 47.2704Z"
                  fill="black"/>
        </g>
    </g>
    <mask id="mask2_658_472" style="mask-type:luminance" maskUnits="userSpaceOnUse" x="36" y="30" width="9" height="7">
        <path d="M36.0383 30.8482H44.0839V36.4795H36.0383V30.8482Z" fill="white"/>
    </mask>
    <g mask="url(#mask2_658_472)">
        <g opacity="0.119995">
            <path d="M42.6861 32.5779L36.0381 36.3552L36.1621 36.4792L42.6861 32.7726C43.6181 32.2432 44.0834 31.5459 44.0834 30.8486C44.0048 31.4792 43.5314 32.0979 42.6861 32.5779Z"
                  fill="black"/>
        </g>
    </g>
    <mask id="mask3_658_472" style="mask-type:luminance" maskUnits="userSpaceOnUse" x="13" y="13" width="32"
          height="18">
        <path d="M13.2966 13.7003H44.0838V30.8477H13.2966V13.7003Z" fill="white"/>
    </mask>
    <g mask="url(#mask3_658_472)">
        <g opacity="0.25">
            <path d="M16.6844 14.3439L42.6857 29.1172C43.5311 29.5972 44.0057 30.2159 44.0831 30.8479C44.0844 30.1506 43.6177 29.4519 42.6857 28.9226L16.6844 14.1492C14.8204 13.0906 13.2964 13.9692 13.2964 16.1039V16.2986C13.2964 14.1652 14.8204 13.2852 16.6844 14.3439Z"
                  fill="white"/>
        </g>
    </g>
    <path d="M56.0677 20.5298H57.4863C58.4103 20.5298 59.1423 20.2658 59.6823 19.7365C60.2223 19.2071 60.4917 18.4658 60.4917 17.5125C60.4917 16.5671 60.2223 15.8285 59.6823 15.2951C59.1423 14.7631 58.4103 14.4965 57.4863 14.4965H56.0677V20.5298ZM55.041 21.5125V13.5125H57.4863C58.7157 13.5125 59.6997 13.8831 60.437 14.6245C61.1743 15.3658 61.5423 16.3285 61.5423 17.5125C61.5423 18.6978 61.1743 19.6605 60.437 20.4005C59.6997 21.1431 58.7157 21.5125 57.4863 21.5125H55.041Z"
          fill="white"/>
    <path d="M56.0677 20.5298H57.4863C58.4103 20.5298 59.1423 20.2658 59.6823 19.7365C60.2223 19.2071 60.4917 18.4658 60.4917 17.5125C60.4917 16.5671 60.2223 15.8285 59.6823 15.2951C59.1423 14.7631 58.4103 14.4965 57.4863 14.4965H56.0677V20.5298ZM55.041 21.5125V13.5125H57.4863C58.7157 13.5125 59.6997 13.8831 60.437 14.6245C61.1743 15.3658 61.5423 16.3285 61.5423 17.5125C61.5423 18.6978 61.1743 19.6605 60.437 20.4005C59.6997 21.1431 58.7157 21.5125 57.4863 21.5125H55.041Z"
          stroke="white" stroke-width="0.266667" stroke-miterlimit="10"/>
    <path d="M62.9851 13.5129H64.0131V21.5129H62.9851V13.5129Z" fill="white" stroke="white" stroke-width="0.266667"
          stroke-miterlimit="10"/>
    <path d="M68.1014 21.6914C67.5201 21.6914 66.9534 21.5021 66.3988 21.1221C65.8428 20.7421 65.4788 20.2101 65.3081 19.5234L66.2468 19.1447C66.3588 19.5834 66.5868 19.9541 66.9334 20.2554C67.2814 20.5567 67.6694 20.7087 68.1014 20.7087C68.5481 20.7087 68.9308 20.5914 69.2468 20.3567C69.5641 20.1221 69.7214 19.8034 69.7214 19.4007C69.7214 18.9541 69.5641 18.6101 69.2468 18.3674C68.9308 18.1261 68.4294 17.9007 67.7441 17.6914C67.0361 17.4687 66.5001 17.1794 66.1348 16.8261C65.7708 16.4714 65.5868 16.0194 65.5868 15.4674C65.5868 14.8941 65.8148 14.3954 66.2694 13.9714C66.7241 13.5474 67.3161 13.3341 68.0454 13.3341C68.7241 13.3341 69.2748 13.5034 69.6988 13.8421C70.1241 14.1821 70.4001 14.5514 70.5254 14.9541L69.5881 15.3447C69.5201 15.0927 69.3548 14.8567 69.0908 14.6407C68.8268 14.4261 68.4854 14.3181 68.0681 14.3181C67.6734 14.3181 67.3361 14.4274 67.0574 14.6474C66.7774 14.8674 66.6374 15.1407 66.6374 15.4674C66.6374 15.7661 66.7668 16.0181 67.0228 16.2221C67.2814 16.4274 67.6588 16.6114 68.1574 16.7754C68.5521 16.9021 68.8814 17.0247 69.1468 17.1447C69.4108 17.2634 69.6801 17.4221 69.9508 17.6194C70.2228 17.8167 70.4268 18.0621 70.5654 18.3567C70.7028 18.6514 70.7721 18.9914 70.7721 19.3794C70.7721 19.7661 70.6921 20.1127 70.5321 20.4181C70.3721 20.7234 70.1588 20.9661 69.8948 21.1447C69.6294 21.3234 69.3468 21.4594 69.0401 21.5514C68.7348 21.6447 68.4214 21.6914 68.1014 21.6914Z"
          fill="white"/>
    <path d="M68.1014 21.6914C67.5201 21.6914 66.9534 21.5021 66.3988 21.1221C65.8428 20.7421 65.4788 20.2101 65.3081 19.5234L66.2468 19.1447C66.3588 19.5834 66.5868 19.9541 66.9334 20.2554C67.2814 20.5567 67.6694 20.7087 68.1014 20.7087C68.5481 20.7087 68.9308 20.5914 69.2468 20.3567C69.5641 20.1221 69.7214 19.8034 69.7214 19.4007C69.7214 18.9541 69.5641 18.6101 69.2468 18.3674C68.9308 18.1261 68.4294 17.9007 67.7441 17.6914C67.0361 17.4687 66.5001 17.1794 66.1348 16.8261C65.7708 16.4714 65.5868 16.0194 65.5868 15.4674C65.5868 14.8941 65.8148 14.3954 66.2694 13.9714C66.7241 13.5474 67.3161 13.3341 68.0454 13.3341C68.7241 13.3341 69.2748 13.5034 69.6988 13.8421C70.1241 14.1821 70.4001 14.5514 70.5254 14.9541L69.5881 15.3447C69.5201 15.0927 69.3548 14.8567 69.0908 14.6407C68.8268 14.4261 68.4854 14.3181 68.0681 14.3181C67.6734 14.3181 67.3361 14.4274 67.0574 14.6474C66.7774 14.8674 66.6374 15.1407 66.6374 15.4674C66.6374 15.7661 66.7668 16.0181 67.0228 16.2221C67.2814 16.4274 67.6588 16.6114 68.1574 16.7754C68.5521 16.9021 68.8814 17.0247 69.1468 17.1447C69.4108 17.2634 69.6801 17.4221 69.9508 17.6194C70.2228 17.8167 70.4268 18.0621 70.5654 18.3567C70.7028 18.6514 70.7721 18.9914 70.7721 19.3794C70.7721 19.7661 70.6921 20.1127 70.5321 20.4181C70.3721 20.7234 70.1588 20.9661 69.8948 21.1447C69.6294 21.3234 69.3468 21.4594 69.0401 21.5514C68.7348 21.6447 68.4214 21.6914 68.1014 21.6914Z"
          stroke="white" stroke-width="0.266667" stroke-miterlimit="10"/>
    <path d="M73.2746 17.2889H74.9959C75.4279 17.2889 75.7746 17.1449 76.0346 16.8543C76.2959 16.5636 76.4252 16.2436 76.4252 15.8929C76.4252 15.5423 76.2959 15.2223 76.0346 14.9316C75.7746 14.6409 75.4279 14.4956 74.9959 14.4956H73.2746V17.2889ZM73.2746 21.5129H72.2466V13.5129H74.9732C75.6506 13.5129 76.2386 13.7383 76.7332 14.1889C77.2292 14.6396 77.4759 15.2076 77.4759 15.8929C77.4759 16.5783 77.2292 17.1463 76.7332 17.5956C76.2386 18.0476 75.6506 18.2729 74.9732 18.2729H73.2746V21.5129Z"
          fill="white"/>
    <path d="M73.2746 17.2889H74.9959C75.4279 17.2889 75.7746 17.1449 76.0346 16.8543C76.2959 16.5636 76.4252 16.2436 76.4252 15.8929C76.4252 15.5423 76.2959 15.2223 76.0346 14.9316C75.7746 14.6409 75.4279 14.4956 74.9959 14.4956H73.2746V17.2889ZM73.2746 21.5129H72.2466V13.5129H74.9732C75.6506 13.5129 76.2386 13.7383 76.7332 14.1889C77.2292 14.6396 77.4759 15.2076 77.4759 15.8929C77.4759 16.5783 77.2292 17.1463 76.7332 17.5956C76.2386 18.0476 75.6506 18.2729 74.9732 18.2729H73.2746V21.5129Z"
          stroke="white" stroke-width="0.266667" stroke-miterlimit="10"/>
    <path d="M80.2069 19.8092C80.7989 20.4092 81.5229 20.7079 82.3802 20.7079C83.2362 20.7079 83.9615 20.4092 84.5535 19.8092C85.1455 19.2092 85.4429 18.4439 85.4429 17.5132C85.4429 16.5826 85.1455 15.8159 84.5535 15.2172C83.9615 14.6172 83.2362 14.3172 82.3802 14.3172C81.5229 14.3172 80.7989 14.6172 80.2069 15.2172C79.6162 15.8159 79.3189 16.5826 79.3189 17.5132C79.3189 18.4439 79.6162 19.2092 80.2069 19.8092ZM85.3135 20.4786C84.5269 21.2879 83.5495 21.6919 82.3802 21.6919C81.2109 21.6919 80.2335 21.2879 79.4482 20.4786C78.6615 19.6706 78.2695 18.6826 78.2695 17.5132C78.2695 16.3439 78.6615 15.3546 79.4482 14.5466C80.2335 13.7386 81.2109 13.3332 82.3802 13.3332C83.5429 13.3332 84.5175 13.7399 85.3082 14.5519C86.0975 15.3639 86.4922 16.3506 86.4922 17.5132C86.4922 18.6826 86.0989 19.6706 85.3135 20.4786Z"
          fill="white"/>
    <path d="M80.2069 19.8092C80.7989 20.4092 81.5229 20.7079 82.3802 20.7079C83.2362 20.7079 83.9615 20.4092 84.5535 19.8092C85.1455 19.2092 85.4429 18.4439 85.4429 17.5132C85.4429 16.5826 85.1455 15.8159 84.5535 15.2172C83.9615 14.6172 83.2362 14.3172 82.3802 14.3172C81.5229 14.3172 80.7989 14.6172 80.2069 15.2172C79.6162 15.8159 79.3189 16.5826 79.3189 17.5132C79.3189 18.4439 79.6162 19.2092 80.2069 19.8092ZM85.3135 20.4786C84.5269 21.2879 83.5495 21.6919 82.3802 21.6919C81.2109 21.6919 80.2335 21.2879 79.4482 20.4786C78.6615 19.6706 78.2695 18.6826 78.2695 17.5132C78.2695 16.3439 78.6615 15.3546 79.4482 14.5466C80.2335 13.7386 81.2109 13.3332 82.3802 13.3332C83.5429 13.3332 84.5175 13.7399 85.3082 14.5519C86.0975 15.3639 86.4922 16.3506 86.4922 17.5132C86.4922 18.6826 86.0989 19.6706 85.3135 20.4786Z"
          stroke="white" stroke-width="0.266667" stroke-miterlimit="10"/>
    <path d="M87.9348 21.5129V13.5129H89.1855L93.0748 19.7356H93.1188L93.0748 18.1943V13.5129H94.1028V21.5129H93.0295L88.9628 14.9876H88.9175L88.9628 16.5303V21.5129H87.9348Z"
          fill="white"/>
    <path d="M87.9348 21.5129V13.5129H89.1855L93.0748 19.7356H93.1188L93.0748 18.1943V13.5129H94.1028V21.5129H93.0295L88.9628 14.9876H88.9175L88.9628 16.5303V21.5129H87.9348Z"
          stroke="white" stroke-width="0.266667" stroke-miterlimit="10"/>
    <path d="M95.9346 13.5129H96.9626V21.5129H95.9346V13.5129Z" fill="white" stroke="white" stroke-width="0.266667"
          stroke-miterlimit="10"/>
    <path d="M99.8215 20.5298H101.889C102.284 20.5298 102.604 20.3911 102.849 20.1151C103.096 19.8405 103.219 19.5391 103.219 19.2111C103.219 18.8831 103.092 18.5831 102.839 18.3111C102.585 18.0405 102.253 17.9031 101.844 17.9031H99.8215V20.5298ZM99.8215 16.9431H101.687C102.075 16.9431 102.387 16.8151 102.621 16.5578C102.855 16.3005 102.972 16.0191 102.972 15.7138C102.972 15.4085 102.859 15.1285 102.631 14.8765C102.404 14.6231 102.105 14.4965 101.733 14.4965H99.8215V16.9431ZM98.7935 21.5125V13.5125H101.687C102.313 13.5125 102.855 13.7205 103.313 14.1325C103.772 14.5471 104.001 15.0658 104.001 15.6911C104.001 16.0711 103.903 16.4071 103.704 16.6978C103.508 16.9885 103.244 17.2071 102.916 17.3565V17.4005C103.311 17.5351 103.635 17.7658 103.889 18.0938C104.141 18.4218 104.269 18.8018 104.269 19.2338C104.269 19.8898 104.028 20.4325 103.548 20.8645C103.068 21.2965 102.5 21.5125 101.844 21.5125H98.7935Z"
          fill="white"/>
    <path d="M99.8215 20.5298H101.889C102.284 20.5298 102.604 20.3911 102.849 20.1151C103.096 19.8405 103.219 19.5391 103.219 19.2111C103.219 18.8831 103.092 18.5831 102.839 18.3111C102.585 18.0405 102.253 17.9031 101.844 17.9031H99.8215V20.5298ZM99.8215 16.9431H101.687C102.075 16.9431 102.387 16.8151 102.621 16.5578C102.855 16.3005 102.972 16.0191 102.972 15.7138C102.972 15.4085 102.859 15.1285 102.631 14.8765C102.404 14.6231 102.105 14.4965 101.733 14.4965H99.8215V16.9431ZM98.7935 21.5125V13.5125H101.687C102.313 13.5125 102.855 13.7205 103.313 14.1325C103.772 14.5471 104.001 15.0658 104.001 15.6911C104.001 16.0711 103.903 16.4071 103.704 16.6978C103.508 16.9885 103.244 17.2071 102.916 17.3565V17.4005C103.311 17.5351 103.635 17.7658 103.889 18.0938C104.141 18.4218 104.269 18.8018 104.269 19.2338C104.269 19.8898 104.028 20.4325 103.548 20.8645C103.068 21.2965 102.5 21.5125 101.844 21.5125H98.7935Z"
          stroke="white" stroke-width="0.266667" stroke-miterlimit="10"/>
    <path d="M105.655 21.5129V13.5129H106.681V20.5303H110.145V21.5129H105.655Z" fill="white"/>
    <path d="M105.655 21.5129V13.5129H106.681V20.5303H110.145V21.5129H105.655Z" stroke="white" stroke-width="0.266667"
          stroke-miterlimit="10"/>
    <path d="M116.113 14.4959H112.47V17.0318H115.754V17.9932H112.47V20.5292H116.113V21.5132H111.442V13.5132H116.113V14.4959Z"
          fill="white"/>
    <path d="M116.113 14.4959H112.47V17.0319H115.754V17.9932H112.47V20.5292H116.113V21.5132H111.442V13.5132H116.113V14.4959Z"
          stroke="white" stroke-width="0.266667" stroke-miterlimit="10"/>
    <path d="M125.074 14.4959H121.431V17.0318H124.715V17.9932H121.431V20.5292H125.074V21.5132H120.403V13.5132H125.074V14.4959Z"
          fill="white"/>
    <path d="M125.074 14.4959H121.431V17.0319H124.715V17.9932H121.431V20.5292H125.074V21.5132H120.403V13.5132H125.074V14.4959Z"
          stroke="white" stroke-width="0.266667" stroke-miterlimit="10"/>
    <path d="M126.682 21.5129V13.5129H127.933L131.821 19.7356H131.866L131.821 18.1943V13.5129H132.85V21.5129H131.777L127.709 14.9876H127.665L127.709 16.5303V21.5129H126.682Z"
          fill="white"/>
    <path d="M126.682 21.5129V13.5129H127.933L131.821 19.7356H131.866L131.821 18.1943V13.5129H132.85V21.5129H131.777L127.709 14.9876H127.665L127.709 16.5303V21.5129H126.682Z"
          stroke="white" stroke-width="0.266667" stroke-miterlimit="10"/>
    <path d="M13.9131 13.8639C13.5265 14.2746 13.2971 14.9119 13.2971 15.7373V45.2252C13.2971 46.0519 13.5265 46.6879 13.9131 47.0986L14.0118 47.1946L30.5318 30.6759V30.4812V30.2852L14.0118 13.7666L13.9131 13.8639Z"
          fill="url(#paint0_linear_658_472)"/>
    <path d="M30.5317 30.2853V30.4813V30.676L36.0371 36.1853L36.1624 36.1146L42.6864 32.408C44.5491 31.348 44.5491 29.6146 42.6864 28.5573L36.1624 24.8493L36.0384 24.7786L30.5317 30.2853Z"
          fill="url(#paint1_linear_658_472)"/>
    <path d="M13.9131 47.0986C14.5278 47.748 15.5424 47.8293 16.6851 47.1813L36.1624 36.1133L30.5318 30.4813L13.9131 47.0986Z"
          fill="url(#paint2_linear_658_472)"/>
    <path d="M13.9131 13.8639L30.5318 30.4812L36.1624 24.8492L16.6851 13.7825C16.1491 13.4772 15.6411 13.3332 15.1904 13.3332C14.6784 13.3332 14.2398 13.5185 13.9131 13.8639Z"
          fill="url(#paint3_linear_658_472)"/>
    <defs>
        <linearGradient id="paint0_linear_658_472" x1="29.0661" y1="15.4262" x2="6.68957" y2="37.8027"
                        gradientUnits="userSpaceOnUse">
            <stop stop-color="#00A0FF"/>
            <stop offset="0.00657445" stop-color="#00A1FF"/>
            <stop offset="0.2601" stop-color="#00BEFF"/>
            <stop offset="0.5122" stop-color="#00D2FF"/>
            <stop offset="0.7604" stop-color="#00DFFF"/>
            <stop offset="1" stop-color="#00E3FF"/>
        </linearGradient>
        <linearGradient id="paint1_linear_658_472" x1="45.1122" y1="30.4819" x2="12.8497" y2="30.4819"
                        gradientUnits="userSpaceOnUse">
            <stop stop-color="#FFE000"/>
            <stop offset="0.4087" stop-color="#FFBD00"/>
            <stop offset="0.7754" stop-color="#FFA500"/>
            <stop offset="1" stop-color="#FF9C00"/>
        </linearGradient>
        <linearGradient id="paint2_linear_658_472" x1="33.1024" y1="33.5414" x2="2.75798" y2="63.8858"
                        gradientUnits="userSpaceOnUse">
            <stop stop-color="#FF3A44"/>
            <stop offset="1" stop-color="#C31162"/>
        </linearGradient>
        <linearGradient id="paint3_linear_658_472" x1="9.72952" y1="4.04811" x2="23.2796" y2="17.5981"
                        gradientUnits="userSpaceOnUse">
            <stop stop-color="#32A071"/>
            <stop offset="0.0685" stop-color="#2DA771"/>
            <stop offset="0.4762" stop-color="#15CF74"/>
            <stop offset="0.8009" stop-color="#06E775"/>
            <stop offset="1" stop-color="#00F076"/>
        </linearGradient>
    </defs>
</svg>