<svg width="181" height="62" viewBox="0 0 181 62" fill="none" xmlns="http://www.w3.org/2000/svg">
<g clip-path="url(#clip0_636_580)">
<path d="M166.586 0.500198H14.4218C13.8672 0.500198 13.3192 0.500198 12.766 0.503248C12.3029 0.506298 11.8435 0.515158 11.376 0.522616C10.3604 0.534666 9.34707 0.624755 8.34499 0.792098C7.34431 0.963086 6.37498 1.28544 5.46978 1.74827C4.56568 2.21502 3.73959 2.8215 3.02146 3.54573C2.29956 4.26792 1.6978 5.10267 1.23932 6.01789C0.779578 6.93129 0.460789 7.91008 0.293968 8.92046C0.12556 9.92956 0.0349379 10.9503 0.0229154 11.9735C0.00887877 12.4411 0.00739646 12.9102 0 13.3778V48.6271C0.00739646 49.1006 0.00887877 49.5593 0.0229154 50.033C0.0349416 51.0561 0.125563 52.0768 0.293968 53.0859C0.460329 54.0968 0.779136 55.0762 1.23932 55.9899C1.69759 56.9022 2.29944 57.7335 3.02146 58.4517C3.73687 59.1792 4.5635 59.7861 5.46978 60.2492C6.37497 60.7133 7.3442 61.0376 8.34499 61.2112C9.34724 61.3772 10.3604 61.4673 11.376 61.4808C11.8435 61.4912 12.3029 61.4972 12.766 61.4972C13.3192 61.5002 13.8672 61.5002 14.4218 61.5002H166.586C167.13 61.5002 167.682 61.5002 168.226 61.4972C168.687 61.4972 169.159 61.4912 169.62 61.4808C170.634 61.4681 171.645 61.3779 172.645 61.2112C173.65 61.0364 174.622 60.7122 175.532 60.2492C176.437 59.7858 177.263 59.1789 177.978 58.4517C178.698 57.7307 179.301 56.9 179.765 55.9899C180.222 55.0755 180.538 54.0962 180.702 53.0859C180.87 52.0767 180.964 51.0562 180.982 50.033C180.988 49.5593 180.988 49.1006 180.988 48.6271C181 48.073 181 47.522 181 46.959V15.0428C181 14.4843 181 13.9303 180.988 13.3778C180.988 12.9102 180.988 12.4411 180.982 11.9734C180.964 10.9501 180.87 9.92963 180.702 8.92039C180.537 7.9106 180.221 6.93189 179.765 6.01783C178.831 4.18337 177.351 2.69014 175.532 1.74814C174.622 1.28644 173.649 0.964165 172.645 0.791961C171.645 0.62388 170.634 0.53376 169.62 0.522402C169.159 0.51496 168.687 0.506024 168.226 0.50305C167.682 0.5 167.13 0.500198 166.586 0.500198Z" fill="#A6A6A6"/>
<path d="M12.7734 60.1657C12.3126 60.1657 11.8629 60.1598 11.4056 60.1494C10.4584 60.137 9.51347 60.0538 8.57845 59.9007C7.70659 59.7493 6.86199 59.4677 6.07251 59.0651C5.29028 58.6659 4.57682 58.1425 3.95946 57.5148C3.33316 56.8946 2.81175 56.1752 2.41587 55.3852C2.01563 54.59 1.73863 53.7377 1.59454 52.8579C1.43894 51.9126 1.35475 50.9567 1.3427 49.9985C1.33311 49.6769 1.32056 48.6061 1.32056 48.6061V13.3777C1.32056 13.3777 1.33393 12.3233 1.34278 12.0135C1.35431 11.0569 1.43801 10.1025 1.59315 9.15864C1.73751 8.27645 2.01471 7.42169 2.41517 6.62393C2.8096 5.83446 3.32812 5.11453 3.95064 4.49206C4.57246 3.86367 5.28821 3.33752 6.07177 2.93279C6.85944 2.53154 7.70244 2.25191 8.57253 2.10328C9.51062 1.9486 10.4589 1.86497 11.4094 1.85309L12.7742 1.83447H168.219L169.6 1.85384C170.542 1.86512 171.481 1.94801 172.411 2.10179C173.29 2.25228 174.141 2.53386 174.938 2.93726C176.508 3.7529 177.785 5.04332 178.591 6.62765C178.985 7.4199 179.258 8.26769 179.4 9.14226C179.557 10.0939 179.645 11.0557 179.663 12.0203C179.668 12.4521 179.668 12.916 179.668 13.3777C179.68 13.9496 179.68 14.4939 179.68 15.0427V46.9589C179.68 47.513 179.68 48.0536 179.668 48.5986C179.668 49.0945 179.668 49.5488 179.662 50.0164C179.644 50.9637 179.558 51.9084 179.403 52.843C179.262 53.7291 178.987 54.5881 178.586 55.3897C178.188 56.1712 177.669 56.8843 177.05 57.5029C176.432 58.1339 175.718 58.6605 174.934 59.0622C174.139 59.4679 173.289 59.7505 172.411 59.9007C171.476 60.0546 170.531 60.1378 169.583 60.1494C169.14 60.1598 168.676 60.1657 168.226 60.1657L166.586 60.1688L12.7734 60.1657Z" fill="black"/>
<path d="M37.4647 31.4585C37.481 30.1857 37.8163 28.9377 38.4395 27.8306C39.0627 26.7235 39.9536 25.7933 41.0292 25.1266C40.3459 24.1428 39.4445 23.3331 38.3965 22.7619C37.3486 22.1907 36.183 21.8737 34.9923 21.8362C32.4523 21.5674 29.9899 23.3686 28.6956 23.3686C27.3762 23.3686 25.3834 21.8629 23.2375 21.9074C21.8494 21.9526 20.4967 22.3596 19.311 23.0886C18.1253 23.8176 17.1472 24.8439 16.4719 26.0674C13.5466 31.1737 15.7286 38.6783 18.5308 42.8059C19.9328 44.8271 21.5713 47.0848 23.7153 47.0047C25.8133 46.917 26.5969 45.6559 29.1294 45.6559C31.6384 45.6559 32.3735 47.0047 34.561 46.9538C36.8123 46.9169 38.2307 44.9236 39.5835 42.8834C40.5909 41.4432 41.366 39.8515 41.8802 38.1673C40.5723 37.6095 39.4562 36.676 38.671 35.483C37.8857 34.29 37.4662 32.8903 37.4647 31.4585Z" fill="white"/>
<path d="M33.333 19.1215C34.5605 17.6359 35.1652 15.7263 35.0188 13.7983C33.1435 13.9969 31.4112 14.9006 30.1671 16.3292C29.5588 17.0272 29.093 17.8392 28.7961 18.7187C28.4993 19.5983 28.3773 20.5282 28.4372 21.4554C29.3752 21.4651 30.3031 21.2601 31.1512 20.8559C31.9992 20.4516 32.7452 19.8586 33.333 19.1215Z" fill="white"/>
<path d="M63.9852 41.8877H56.8256L55.1063 47.0063H52.0737L58.8552 28.0688H62.0059L68.7873 47.0063H65.7031L63.9852 41.8877ZM57.5671 39.5257H63.2423L60.4446 31.2187H60.3663L57.5671 39.5257Z" fill="white"/>
<path d="M83.4329 40.1037C83.4329 44.3943 81.1552 47.1509 77.7179 47.1509C76.8472 47.1968 75.9813 46.9946 75.2193 46.5674C74.4572 46.1401 73.8299 45.5052 73.4092 44.7353H73.3442V51.5739H70.5332V33.1995H73.2541V35.4959H73.3058C73.7459 34.7297 74.3838 34.098 75.1516 33.6682C75.9194 33.2384 76.7885 33.0265 77.6662 33.055C81.1418 33.0551 83.4329 35.8251 83.4329 40.1037ZM80.5437 40.1037C80.5437 37.3084 79.1109 35.4706 76.9247 35.4706C74.777 35.4706 73.3324 37.3471 73.3324 40.1037C73.3324 42.8856 74.777 44.7487 76.9247 44.7487C79.1109 44.7487 80.5437 42.9244 80.5437 40.1037Z" fill="white"/>
<path d="M98.5054 40.1037C98.5054 44.3942 96.2277 47.1509 92.7905 47.1509C91.9197 47.1968 91.0538 46.9946 90.2918 46.5673C89.5298 46.1401 88.9025 45.5052 88.4817 44.7353H88.4167V51.5739H85.6057V33.1995H88.3266V35.4959H88.3782C88.8183 34.7297 89.4562 34.098 90.2241 33.6682C90.9919 33.2384 91.8609 33.0265 92.7387 33.055C96.2144 33.055 98.5054 35.825 98.5054 40.1037ZM95.6162 40.1037C95.6162 37.3084 94.1834 35.4706 91.9972 35.4706C89.8495 35.4706 88.4049 37.3471 88.4049 40.1037C88.4049 42.8856 89.8495 44.7487 91.9972 44.7487C94.1834 44.7487 95.6162 42.9243 95.6162 40.1037Z" fill="white"/>
<path d="M108.467 41.7299C108.675 43.6079 110.485 44.8409 112.958 44.8409C115.327 44.8409 117.031 43.6078 117.031 41.9145C117.031 40.4446 116.003 39.5645 113.569 38.9613L111.135 38.3701C107.686 37.5302 106.084 35.9039 106.084 33.2649C106.084 29.9975 108.909 27.7532 112.919 27.7532C116.888 27.7532 119.609 29.9975 119.701 33.2649H116.863C116.693 31.375 115.144 30.2343 112.879 30.2343C110.615 30.2343 109.065 31.3885 109.065 33.0683C109.065 34.4072 110.055 35.195 112.476 35.7981L114.545 36.3104C118.399 37.2293 120 38.7901 120 41.56C120 45.103 117.201 47.322 112.749 47.322C108.584 47.322 105.771 45.1551 105.59 41.7298L108.467 41.7299Z" fill="white"/>
<path d="M126.067 29.9321V33.1996H128.671V35.4439H126.067V43.0555C126.067 44.2379 126.588 44.789 127.733 44.789C128.042 44.7835 128.351 44.7616 128.658 44.7234V46.9543C128.143 47.0513 127.62 47.0952 127.096 47.0854C124.324 47.0854 123.243 46.0354 123.243 43.3577V35.4439H121.251V33.1996H123.243V29.9321H126.067Z" fill="white"/>
<path d="M130.179 40.1038C130.179 35.7596 132.717 33.0298 136.674 33.0298C140.645 33.0298 143.17 35.7595 143.17 40.1038C143.17 44.4598 140.658 47.1777 136.674 47.1777C132.692 47.1777 130.179 44.4598 130.179 40.1038ZM140.306 40.1038C140.306 37.1238 138.952 35.3649 136.674 35.3649C134.396 35.3649 133.043 37.1372 133.043 40.1038C133.043 43.0957 134.396 44.8411 136.674 44.8411C138.952 44.8411 140.306 43.0957 140.306 40.1038Z" fill="white"/>
<path d="M145.488 33.1994H148.169V35.5494H148.234C148.415 34.8154 148.842 34.1668 149.442 33.7125C150.042 33.2583 150.778 33.026 151.528 33.0549C151.852 33.0537 152.175 33.0892 152.491 33.1606V35.8115C152.082 35.6855 151.656 35.6277 151.228 35.6403C150.82 35.6236 150.413 35.6961 150.035 35.853C149.657 36.0099 149.317 36.2474 149.039 36.5492C148.761 36.851 148.55 37.2099 148.423 37.6014C148.295 37.9928 148.253 38.4074 148.299 38.8168V47.0063H145.488L145.488 33.1994Z" fill="white"/>
<path d="M165.451 42.9512C165.073 45.4576 162.652 47.1777 159.555 47.1777C155.571 47.1777 153.098 44.4866 153.098 40.1693C153.098 35.8385 155.584 33.0298 159.436 33.0298C163.225 33.0298 165.608 35.6539 165.608 39.8402V40.8112H155.936V40.9824C155.891 41.4905 155.954 42.0024 156.121 42.4841C156.287 42.9657 156.554 43.4061 156.902 43.776C157.251 44.1459 157.673 44.4368 158.142 44.6294C158.61 44.8221 159.114 44.912 159.62 44.8932C160.284 44.956 160.95 44.8008 161.52 44.4509C162.09 44.101 162.533 43.5751 162.782 42.9512L165.451 42.9512ZM155.949 38.8304H162.795C162.821 38.3736 162.752 37.9163 162.594 37.4875C162.435 37.0587 162.191 36.6674 161.875 36.3384C161.56 36.0094 161.18 35.7496 160.761 35.5754C160.341 35.4012 159.89 35.3164 159.436 35.3262C158.979 35.3235 158.525 35.4121 158.101 35.5871C157.678 35.7621 157.293 36.0199 156.969 36.3457C156.644 36.6715 156.387 37.0588 156.212 37.4853C156.037 37.9118 155.948 38.3689 155.949 38.8304Z" fill="white"/>
<path d="M57.2146 13.8148C57.8039 13.7721 58.3953 13.8619 58.946 14.0776C59.4967 14.2933 59.9931 14.6295 60.3994 15.062C60.8057 15.4946 61.1116 16.0126 61.2953 16.5788C61.4789 17.145 61.5356 17.7452 61.4613 18.3361C61.4613 21.2432 59.9029 22.9142 57.2146 22.9142H53.9546V13.8148H57.2146ZM55.3564 21.6273H57.058C57.4791 21.6527 57.9005 21.5831 58.2916 21.4236C58.6826 21.264 59.0335 21.0186 59.3186 20.7051C59.6037 20.3916 59.8159 20.018 59.9397 19.6114C60.0635 19.2048 60.0959 18.7755 60.0344 18.3547C60.0914 17.9356 60.0558 17.5089 59.9301 17.1053C59.8044 16.7017 59.5916 16.3311 59.3072 16.0201C59.0227 15.7091 58.6736 15.4654 58.2847 15.3065C57.8959 15.1475 57.477 15.0772 57.058 15.1007H55.3564V21.6273Z" fill="white"/>
<path d="M69.1422 21.0598C68.9596 21.6874 68.5639 22.2303 68.0244 22.5935C67.4849 22.9566 66.8359 23.117 66.1909 23.0465C65.7422 23.0584 65.2963 22.9718 64.8841 22.7925C64.4719 22.6133 64.1034 22.3458 63.804 22.0086C63.5047 21.6713 63.2817 21.2724 63.1506 20.8396C63.0194 20.4068 62.9833 19.9504 63.0447 19.502C62.9849 19.0523 63.0217 18.5949 63.1525 18.1608C63.2833 17.7267 63.5051 17.326 63.8029 16.9858C64.1007 16.6456 64.4675 16.3739 64.8785 16.1891C65.2894 16.0042 65.735 15.9106 66.185 15.9144C68.0802 15.9144 69.2235 17.2198 69.2235 19.3762V19.8491H64.414V19.925C64.393 20.177 64.4244 20.4307 64.5063 20.6697C64.5881 20.9088 64.7186 21.1279 64.8894 21.3131C65.0602 21.4984 65.2675 21.6456 65.498 21.7453C65.7285 21.845 65.9771 21.8951 66.2279 21.8923C66.5495 21.9312 66.8752 21.8728 67.1638 21.7246C67.4523 21.5763 67.6906 21.3449 67.8483 21.0598L69.1422 21.0598ZM64.4139 18.8468H67.8541C67.8711 18.6163 67.84 18.3848 67.7629 18.1672C67.6859 17.9495 67.5645 17.7505 67.4066 17.583C67.2487 17.4155 67.0578 17.2831 66.8461 17.1944C66.6345 17.1057 66.4068 17.0626 66.1776 17.0679C65.9451 17.0649 65.7144 17.109 65.4991 17.1973C65.2837 17.2857 65.0881 17.4166 64.9238 17.5824C64.7594 17.7482 64.6296 17.9455 64.5421 18.1626C64.4546 18.3798 64.4109 18.6124 64.4139 18.8468Z" fill="white"/>
<path d="M73.5176 15.9146C75.0494 15.9146 76.0508 16.6331 76.1823 17.8439H74.8928C74.7687 17.3398 74.2798 17.0181 73.5176 17.0181C72.7672 17.0181 72.1971 17.377 72.1971 17.9131C72.1971 18.3234 72.5413 18.5818 73.2798 18.7523L74.4112 19.0167C75.7067 19.3197 76.3138 19.8812 76.3138 20.8902C76.3138 22.1828 75.1188 23.0466 73.4925 23.0466C71.8721 23.0466 70.8159 22.3087 70.6963 21.092H72.0419C72.1579 21.3815 72.367 21.6235 72.6357 21.7789C72.9043 21.9343 73.217 21.9942 73.5235 21.949C74.361 21.949 74.9563 21.5708 74.9563 21.0219C74.9563 20.6124 74.6372 20.3473 73.9548 20.1835L72.7672 19.9058C71.4718 19.5967 70.8721 19.0107 70.8721 17.9891C70.8721 16.7716 71.9784 15.9146 73.5176 15.9146Z" fill="white"/>
<path d="M82.5841 18.2913C82.4984 17.9352 82.2891 17.6219 81.994 17.4079C81.6989 17.194 81.3376 17.0937 80.9755 17.1252C79.85 17.1252 79.1616 17.9949 79.1616 19.4582C79.1616 20.9467 79.8559 21.8357 80.9755 21.8357C81.334 21.8776 81.6954 21.786 81.9916 21.5781C82.2878 21.3702 82.4985 21.0604 82.5841 20.7069H83.8914C83.8049 21.4022 83.4524 22.036 82.9091 22.4731C82.3658 22.9102 81.6746 23.1159 80.9829 23.0465C80.5275 23.061 80.0744 22.975 79.6554 22.7946C79.2364 22.6141 78.8616 22.3435 78.5571 22.0017C78.2527 21.6599 78.0259 21.2552 77.8928 20.8159C77.7597 20.3765 77.7234 19.9132 77.7864 19.4582C77.7266 19.0066 77.7652 18.5472 77.8996 18.1122C78.034 17.6772 78.261 17.277 78.5646 16.9396C78.8683 16.6021 79.2414 16.3356 79.6578 16.1585C80.0742 15.9815 80.5239 15.8982 80.9755 15.9145C81.6729 15.8497 82.3677 16.0619 82.9123 16.5058C83.4569 16.9497 83.8081 17.5903 83.8914 18.2914L82.5841 18.2913Z" fill="white"/>
<path d="M85.2251 20.972C85.2251 19.736 86.138 19.0233 87.7583 18.9221L89.6033 18.8149V18.2221C89.6033 17.4969 89.1276 17.0873 88.2089 17.0873C87.4585 17.0873 86.9386 17.3651 86.7894 17.8506H85.488C85.6254 16.6711 86.7259 15.9145 88.2709 15.9145C89.9785 15.9145 90.9415 16.7716 90.9415 18.2221V22.914H89.6476V21.949H89.5412C89.3254 22.2952 89.0222 22.5774 88.6628 22.7668C88.3034 22.9562 87.9006 23.0461 87.4954 23.0272C87.2095 23.0572 86.9205 23.0264 86.6471 22.9369C86.3737 22.8474 86.1219 22.7011 85.908 22.5075C85.6941 22.3138 85.5228 22.0772 85.4052 21.8127C85.2876 21.5482 85.2262 21.2619 85.2251 20.972ZM89.6033 20.3853V19.8112L87.94 19.9184C87.0021 19.9817 86.5767 20.3034 86.5767 20.9087C86.5767 21.5268 87.1084 21.8864 87.8396 21.8864C88.0539 21.9083 88.2703 21.8865 88.476 21.8223C88.6818 21.7581 88.8726 21.6529 89.0371 21.5128C89.2016 21.3727 89.3366 21.2007 89.4338 21.007C89.5311 20.8133 89.5887 20.6019 89.6033 20.3853ZM87.4644 14.8988L89.0346 12.7297H90.6107L88.8529 14.8988H87.4644Z" fill="white"/>
<path d="M93.0464 16.0471H94.3403V17.1H94.4408C94.5856 16.7345 94.8417 16.4247 95.1721 16.215C95.5025 16.0054 95.8903 15.9067 96.2798 15.9332C96.4811 15.9304 96.6822 15.9494 96.8795 15.9898V17.3272C96.6328 17.274 96.3814 17.2466 96.1291 17.2453C95.9074 17.2252 95.684 17.2521 95.4732 17.3243C95.2625 17.3964 95.069 17.5123 94.9053 17.6643C94.7415 17.8163 94.6112 18.0012 94.5225 18.2071C94.4339 18.4129 94.3889 18.6352 94.3906 18.8596V22.9141H93.0464L93.0464 16.0471Z" fill="white"/>
<path d="M98.1145 23.6013H99.4905C99.6042 24.0994 100.173 24.4211 101.08 24.4211C102.199 24.4211 102.863 23.885 102.863 22.9773V21.6593H102.762C102.551 22.0282 102.244 22.3312 101.873 22.5348C101.502 22.7383 101.082 22.8345 100.66 22.8127C98.9218 22.8127 97.8457 21.4575 97.8457 19.4016C97.8457 17.3077 98.9336 15.9331 100.674 15.9331C101.106 15.9179 101.534 16.0228 101.911 16.2363C102.289 16.4499 102.6 16.7638 102.813 17.1439H102.919V16.047H104.207V22.9705C104.207 24.5409 102.987 25.5373 101.061 25.5373C99.359 25.5373 98.2579 24.7681 98.1145 23.6013ZM102.888 19.3949C102.888 18.0269 102.186 17.1506 101.041 17.1506C99.8848 17.1506 99.2349 18.027 99.2349 19.3949C99.2349 20.7635 99.8848 21.6399 101.041 21.6399C102.194 21.6399 102.888 20.7702 102.888 19.3949Z" fill="white"/>
<path d="M105.96 20.9721C105.96 19.736 106.873 19.0234 108.493 18.9221L110.338 18.8149V18.2222C110.338 17.4969 109.863 17.0873 108.944 17.0873C108.194 17.0873 107.674 17.3651 107.524 17.8506H106.223C106.361 16.6711 107.461 15.9146 109.006 15.9146C110.714 15.9146 111.677 16.7716 111.677 18.2222V22.9141H110.383V21.949H110.276C110.06 22.2952 109.757 22.5774 109.398 22.7668C109.039 22.9562 108.636 23.0461 108.231 23.0272C107.945 23.0572 107.656 23.0264 107.382 22.9369C107.109 22.8474 106.857 22.7011 106.643 22.5075C106.429 22.3139 106.258 22.0772 106.14 21.8127C106.023 21.5483 105.961 21.2619 105.96 20.9721ZM110.338 20.3853V19.8112L108.675 19.9184C107.737 19.9817 107.312 20.3034 107.312 20.9088C107.312 21.5268 107.844 21.8865 108.575 21.8865C108.789 21.9083 109.005 21.8865 109.211 21.8223C109.417 21.7581 109.608 21.6529 109.772 21.5128C109.937 21.3728 110.072 21.2008 110.169 21.0071C110.266 20.8134 110.324 20.6019 110.338 20.3853Z" fill="white"/>
<path d="M113.844 13.3665H115.188V22.9141H113.844V13.3665Z" fill="white"/>
<path d="M117.056 19.4775C117.013 19.0263 117.065 18.5709 117.207 18.1408C117.348 17.7106 117.578 17.3151 117.88 16.9797C118.183 16.6442 118.551 16.3761 118.963 16.1927C119.374 16.0093 119.819 15.9146 120.268 15.9146C120.718 15.9146 121.163 16.0093 121.574 16.1927C121.985 16.3761 122.354 16.6442 122.656 16.9797C122.958 17.3151 123.188 17.7106 123.33 18.1408C123.472 18.5709 123.523 19.0263 123.48 19.4775C123.524 19.9293 123.473 20.3852 123.332 20.8161C123.19 21.2469 122.961 21.6431 122.658 21.9793C122.356 22.3154 121.987 22.584 121.575 22.7678C121.164 22.9516 120.718 23.0466 120.268 23.0466C119.818 23.0466 119.373 22.9516 118.961 22.7678C118.55 22.584 118.181 22.3154 117.878 21.9793C117.576 21.6431 117.346 21.2469 117.205 20.8161C117.063 20.3852 117.013 19.9293 117.056 19.4775ZM122.098 19.4775C122.098 17.989 121.434 17.1186 120.27 17.1186C119.102 17.1186 118.445 17.989 118.445 19.4775C118.445 20.978 119.102 21.8417 120.27 21.8417C121.434 21.8417 122.098 20.972 122.098 19.4775Z" fill="white"/>
<path d="M134.739 21.0598C134.556 21.6874 134.161 22.2303 133.621 22.5935C133.082 22.9566 132.433 23.117 131.788 23.0465C131.339 23.0584 130.893 22.9718 130.481 22.7925C130.069 22.6133 129.7 22.3458 129.401 22.0086C129.101 21.6713 128.878 21.2724 128.747 20.8396C128.616 20.4068 128.58 19.9504 128.641 19.502C128.582 19.0523 128.618 18.5949 128.749 18.1608C128.88 17.7267 129.102 17.326 129.4 16.9858C129.697 16.6456 130.064 16.3739 130.475 16.1891C130.886 16.0042 131.332 15.9106 131.782 15.9144C133.677 15.9144 134.82 17.2198 134.82 19.3762V19.8491H130.011V19.925C129.99 20.177 130.021 20.4307 130.103 20.6697C130.185 20.9088 130.315 21.1279 130.486 21.3131C130.657 21.4984 130.864 21.6456 131.095 21.7453C131.325 21.845 131.574 21.8951 131.825 21.8923C132.146 21.9312 132.472 21.8728 132.76 21.7246C133.049 21.5763 133.287 21.3449 133.445 21.0598L134.739 21.0598ZM130.011 18.8468H133.451C133.468 18.6163 133.437 18.3848 133.36 18.1672C133.282 17.9495 133.161 17.7505 133.003 17.583C132.845 17.4155 132.654 17.2831 132.443 17.1944C132.231 17.1057 132.003 17.0626 131.774 17.0679C131.542 17.0649 131.311 17.1089 131.096 17.1973C130.88 17.2857 130.685 17.4166 130.52 17.5824C130.356 17.7482 130.226 17.9455 130.139 18.1626C130.051 18.3798 130.008 18.6124 130.011 18.8468Z" fill="white"/>
<path d="M136.625 16.047H137.919V17.1379H138.02C138.19 16.7461 138.477 16.4177 138.842 16.1984C139.206 15.9791 139.629 15.8798 140.052 15.9145C140.384 15.8894 140.716 15.9397 141.026 16.0619C141.335 16.184 141.613 16.3748 141.84 16.6201C142.066 16.8654 142.235 17.1589 142.334 17.4789C142.432 17.7988 142.458 18.1371 142.41 18.4685V22.9139H141.065V18.8089C141.065 17.7053 140.59 17.1565 139.596 17.1565C139.371 17.146 139.146 17.1846 138.937 17.2697C138.728 17.3549 138.54 17.4845 138.386 17.6498C138.231 17.8151 138.114 18.0121 138.042 18.2273C137.97 18.4425 137.946 18.6709 137.969 18.8967V22.914H136.625V16.047Z" fill="white"/>
<path d="M153.943 21.0598C153.76 21.6874 153.364 22.2303 152.825 22.5935C152.285 22.9566 151.636 23.117 150.991 23.0465C150.543 23.0584 150.097 22.9718 149.685 22.7925C149.272 22.6133 148.904 22.3458 148.605 22.0086C148.305 21.6713 148.082 21.2724 147.951 20.8396C147.82 20.4068 147.784 19.9504 147.845 19.502C147.785 19.0523 147.822 18.5949 147.953 18.1608C148.084 17.7267 148.306 17.326 148.603 16.9858C148.901 16.6456 149.268 16.3739 149.679 16.1891C150.09 16.0042 150.536 15.9106 150.986 15.9144C152.881 15.9144 154.024 17.2198 154.024 19.3762V19.8491H149.214V19.925C149.193 20.177 149.225 20.4307 149.307 20.6697C149.389 20.9088 149.519 21.1279 149.69 21.3131C149.861 21.4984 150.068 21.6456 150.298 21.7453C150.529 21.845 150.778 21.8951 151.028 21.8923C151.35 21.9312 151.676 21.8728 151.964 21.7246C152.253 21.5763 152.491 21.3449 152.649 21.0598L153.943 21.0598ZM149.214 18.8468H152.655C152.672 18.6163 152.641 18.3848 152.563 18.1672C152.486 17.9495 152.365 17.7505 152.207 17.583C152.049 17.4155 151.858 17.2831 151.647 17.1944C151.435 17.1057 151.207 17.0626 150.978 17.0679C150.746 17.0649 150.515 17.1089 150.3 17.1973C150.084 17.2857 149.889 17.4166 149.724 17.5824C149.56 17.7482 149.43 17.9455 149.343 18.1626C149.255 18.3798 149.211 18.6124 149.214 18.8468Z" fill="white"/>
<path d="M155.891 13.3665H157.235V22.9141H155.891V13.3665Z" fill="white"/>
</g>
<defs>
<clipPath id="clip0_636_580">
<rect width="181" height="61" fill="white" transform="translate(0 0.5)"/>
</clipPath>
</defs>
</svg>
