<svg
        width="185"
        height="59"
        viewBox="0 0 185 59"
        fill="none"
        xmlns="http://www.w3.org/2000/svg"
>
    <path
            d="M0.752 58V53.648L30.896 16.272L31.6 18.768H1.2V13.2H37.36V17.552L7.344 54.928L6.576 52.432H38.192V58H0.752ZM19.504 8.4C18.4373 8.4 17.5413 8.03733 16.816 7.312C16.0907 6.58666 15.728 5.69066 15.728 4.624C15.728 3.55733 16.0907 2.66133 16.816 1.936C17.5413 1.21066 18.4373 0.847996 19.504 0.847996C20.5707 0.847996 21.4667 1.21066 22.192 1.936C22.9173 2.66133 23.28 3.55733 23.28 4.624C23.28 5.69066 22.9173 6.58666 22.192 7.312C21.4667 8.03733 20.5707 8.4 19.504 8.4ZM57.5985 58V40.848L59.0705 44.816L39.8065 13.2H46.6545L62.8465 39.888H59.1345L75.3905 13.2H81.7265L62.5265 44.816L63.9345 40.848V58H57.5985ZM106.315 58.512C102.901 58.512 99.7438 57.9573 96.8425 56.848C93.9838 55.696 91.4878 54.096 89.3545 52.048C87.2638 49.9573 85.6212 47.5253 84.4265 44.752C83.2318 41.9787 82.6345 38.928 82.6345 35.6C82.6345 32.272 83.2318 29.2213 84.4265 26.448C85.6212 23.6747 87.2852 21.264 89.4185 19.216C91.5518 17.1253 94.0478 15.5253 96.9065 14.416C99.8078 13.264 102.965 12.688 106.379 12.688C109.835 12.688 113.013 13.2853 115.915 14.48C118.859 15.632 121.355 17.36 123.403 19.664L119.243 23.696C117.536 21.904 115.616 20.5813 113.483 19.728C111.349 18.832 109.067 18.384 106.635 18.384C104.117 18.384 101.771 18.8107 99.5945 19.664C97.4612 20.5173 95.6052 21.712 94.0265 23.248C92.4478 24.784 91.2105 26.6187 90.3145 28.752C89.4612 30.8427 89.0345 33.1253 89.0345 35.6C89.0345 38.0747 89.4612 40.3787 90.3145 42.512C91.2105 44.6027 92.4478 46.416 94.0265 47.952C95.6052 49.488 97.4612 50.6827 99.5945 51.536C101.771 52.3893 104.117 52.816 106.635 52.816C109.067 52.816 111.349 52.3893 113.483 51.536C115.616 50.64 117.536 49.2747 119.243 47.44L123.403 51.472C121.355 53.776 118.859 55.5253 115.915 56.72C113.013 57.9147 109.813 58.512 106.315 58.512ZM132.533 58V13.2H138.933V58H132.533ZM158.169 32.528H181.209V37.968H158.169V32.528ZM158.745 52.432H184.857V58H152.345V13.2H183.961V18.768H158.745V52.432Z"
            fill="#888888"
    />
</svg>
