<svg width="94" height="51" viewBox="0 0 94 51" fill="none" xmlns="http://www.w3.org/2000/svg">
    <path d="M3.64235 16.1079C3.64235 17.5798 3.84585 18.7053 4.25285 19.486C4.65985 20.2674 5.26517 20.7936 6.06955 21.0644C6.87245 21.336 7.86257 21.4722 9.03991 21.4722H12.435V17.4318H10.4318C9.91089 17.4318 9.49797 17.3814 9.19235 17.2793C8.88673 17.1779 8.67731 16.9907 8.56409 16.7199C8.45087 16.4483 8.39463 16.0524 8.39463 15.5314V8.60578H12.5364V4.63346H8.39463V0.0166016H3.64161V4.63346H0.756348V8.60578H3.64161V16.1079H3.64235Z"
          fill="white"/>
    <path d="M24.7587 19.232C25.1435 20.1148 25.7437 20.7091 26.5584 21.014C27.3732 21.3196 28.3914 21.472 29.6139 21.472H30.6662V17.4997H30.53C30.1681 17.4997 29.8736 17.4434 29.6472 17.3302C29.4207 17.2177 29.2572 16.9514 29.1551 16.5325C29.053 16.1144 29.0026 15.475 29.0026 14.6144V11.1179C29.0026 8.90015 28.273 7.19667 26.813 6.00897C25.353 4.82053 23.3557 4.22705 20.8205 4.22705C19.5306 4.22705 18.3533 4.44757 17.2899 4.88861C16.2258 5.32965 15.36 5.97049 14.6933 6.80669C14.025 7.64437 13.624 8.66335 13.4878 9.86289H17.9352C18.0936 9.13843 18.4443 8.64041 18.9875 8.36957C19.5306 8.09799 20.1419 7.96183 20.8205 7.96183C21.8165 7.96183 22.6372 8.21121 23.2817 8.70849C23.927 9.20651 24.2489 10.0101 24.2489 11.1194V11.9341C23.8189 11.798 23.2588 11.6626 22.5683 11.5264C21.8772 11.391 21.0462 11.3236 20.0731 11.3236C18.0366 11.3236 16.3901 11.8039 15.1336 12.7659C13.877 13.7286 13.2488 15.0806 13.2488 16.8226C13.2488 17.7505 13.4915 18.6001 13.9784 19.3689C14.4646 20.1378 15.1609 20.749 16.0667 21.2012C16.9717 21.654 18.0469 21.8805 19.2916 21.8805C20.4912 21.8805 21.5545 21.6311 22.4832 21.1331C23.4119 20.6351 24.1697 20.0009 24.7587 19.232ZM20.4127 18.2811C19.6883 18.2811 19.1111 18.1057 18.6819 17.755C18.2512 17.4042 18.0366 16.9573 18.0366 16.4141C18.0366 15.7577 18.2852 15.2538 18.7832 14.903C19.2813 14.553 19.8807 14.3769 20.5829 14.3769C21.1942 14.3769 21.7995 14.439 22.3989 14.5634C22.9983 14.6884 23.5244 14.8187 23.9773 14.9541C23.8189 15.5883 23.5814 16.1588 23.2647 16.6687C22.9472 17.1778 22.5572 17.5737 22.0933 17.8571C21.6293 18.1398 21.0691 18.2811 20.4127 18.2811Z"
          fill="white"/>
    <path d="M41.762 21.88C43.3234 21.88 44.7264 21.5004 45.9711 20.7419C47.2158 19.9841 48.2 18.937 48.9244 17.6021C49.6489 16.2671 50.0108 14.7619 50.0108 13.0866C50.0108 11.3898 49.6489 9.8735 48.9244 8.5378C48.2 7.20284 47.2158 6.15056 45.9711 5.38022C44.7264 4.61136 43.3234 4.22656 41.762 4.22656C40.3811 4.22656 39.2549 4.4974 38.3839 5.0413C37.5122 5.58446 36.8055 6.2179 36.2623 6.94162V4.63356H31.5093V32.5279H36.2623V19.3004C36.8506 20.1151 37.6032 20.7485 38.52 21.2007C39.4369 21.6528 40.5173 21.88 41.762 21.88ZM36.7041 15.4642C36.3185 14.7627 36.1269 13.9598 36.1269 13.0533C36.1269 12.1483 36.3185 11.3446 36.7041 10.6424C37.0889 9.94084 37.6202 9.38658 38.2995 8.97958C38.9781 8.57184 39.7588 8.36908 40.6416 8.36908C41.5244 8.36908 42.3103 8.57184 43.0007 8.97958C43.6904 9.38658 44.2284 9.94676 44.6132 10.6601C44.998 11.3727 45.1904 12.1823 45.1904 13.0866C45.1904 13.9694 44.998 14.7627 44.6132 15.4635C44.2277 16.165 43.6904 16.7192 43.0007 17.1262C42.3096 17.534 41.5237 17.7367 40.6416 17.7367C39.7588 17.7367 38.9781 17.534 38.2995 17.1262C37.6202 16.72 37.0889 16.165 36.7041 15.4642Z"
          fill="white"/>
    <path d="M62.0588 19.232C62.4436 20.1148 63.0437 20.7091 63.8585 21.014C64.6732 21.3196 65.6914 21.472 66.9139 21.472H67.9662V17.4997H67.83C67.4682 17.4997 67.1737 17.4434 66.9472 17.3302C66.7208 17.2177 66.5572 16.9514 66.4551 16.5325C66.353 16.1144 66.3027 15.475 66.3027 14.6144V11.1179C66.3027 8.90015 65.573 7.19667 64.113 6.00897C62.653 4.82053 60.6557 4.22705 58.1205 4.22705C56.8307 4.22705 55.6533 4.44757 54.59 4.88861C53.5258 5.32965 52.66 5.97049 51.9933 6.80669C51.3251 7.64437 50.924 8.66335 50.7878 9.86289H55.2352C55.3936 9.13843 55.7444 8.64041 56.2875 8.36957C56.8307 8.09799 57.4419 7.96183 58.1205 7.96183C59.1165 7.96183 59.9372 8.21121 60.5817 8.70849C61.227 9.20651 61.5489 10.0101 61.5489 11.1194V11.9341C61.119 11.798 60.5588 11.6626 59.8684 11.5264C59.1772 11.391 58.3462 11.3236 57.3731 11.3236C55.3366 11.3236 53.6901 11.8039 52.4336 12.7659C51.1771 13.7286 50.5488 15.0806 50.5488 16.8226C50.5488 17.7505 50.7915 18.6001 51.2785 19.3689C51.7646 20.1378 52.461 20.749 53.3667 21.2012C54.2718 21.654 55.347 21.8805 56.5917 21.8805C57.7912 21.8805 58.8546 21.6311 59.7833 21.1331C60.712 20.6351 61.4697 20.0009 62.0588 19.232ZM57.7135 18.2811C56.989 18.2811 56.4118 18.1057 55.9826 17.755C55.552 17.4042 55.3374 16.9573 55.3374 16.4141C55.3374 15.7577 55.586 15.2538 56.084 14.903C56.582 14.553 57.1814 14.3769 57.8837 14.3769C58.4949 14.3769 59.1003 14.439 59.6997 14.5634C60.2991 14.6884 60.8252 14.8187 61.2781 14.9541C61.1197 15.5883 60.8822 16.1588 60.5655 16.6687C60.248 17.1778 59.858 17.5737 59.394 17.8571C58.9301 18.1398 58.3699 18.2811 57.7135 18.2811Z"
          fill="white"/>
    <path d="M11.3791 32.2002C10.1337 32.2002 9.03037 32.4599 8.06911 32.9809C7.10711 33.5018 6.35453 34.2033 5.81137 35.0862V25.0029H1.05835V49.4459H5.81137V40.7546C5.81137 39.3293 6.18507 38.2142 6.93173 37.4105C7.67839 36.6076 8.62929 36.2058 9.78295 36.2058C10.9825 36.2058 11.8535 36.5736 12.3974 37.3091C12.9405 38.0447 13.2121 39.1021 13.2121 40.483V49.4451H17.9311V40.042C17.9311 37.5075 17.365 35.5664 16.2335 34.2196C15.1013 32.8736 13.4837 32.2002 11.3791 32.2002Z"
          fill="white"/>
    <path d="M31.4423 41.2987C31.4423 42.724 31.1307 43.8399 30.5084 44.6428C29.886 45.4464 29.0091 45.8475 27.8777 45.8475C26.8365 45.8475 26.0558 45.4805 25.5356 44.7442C25.0146 44.0093 24.7549 42.9511 24.7549 41.5703V32.6074H20.0359V42.0106C20.0359 44.5458 20.5901 46.4861 21.6994 47.8329C22.8079 49.1805 24.3353 49.8531 26.2822 49.8531C27.5269 49.8531 28.574 49.5978 29.4228 49.0887C30.2716 48.5796 30.945 47.8951 31.443 47.0345V49.4454H36.1953V34.3975H31.4423V41.2987Z"
          fill="white"/>
    <path d="M51.4378 33.2858C50.148 32.5621 48.665 32.2002 46.9904 32.2002C45.2248 32.2002 43.6745 32.585 42.3395 33.3539C41.0038 34.1235 39.9685 35.1876 39.233 36.5447C38.4974 37.9034 38.1296 39.4537 38.1296 41.1956C38.1296 42.8932 38.5033 44.3932 39.25 45.6941C39.9967 46.9958 41.0371 48.0147 42.3728 48.7503C43.7078 49.4851 45.247 49.8536 46.9897 49.8536C48.3476 49.8536 49.5752 49.5983 50.6734 49.0892C51.7708 48.5801 52.6988 47.8897 53.4573 47.0187C54.215 46.1477 54.7523 45.1687 55.0697 44.0816H50.2153C49.9208 44.6477 49.502 45.1058 48.9595 45.4566C48.4164 45.8073 47.7482 45.9827 46.9564 45.9827C46.1416 45.9827 45.4231 45.8073 44.8007 45.4566C44.1777 45.1058 43.6915 44.6085 43.3407 43.9632C43.0558 43.4401 42.8893 42.8451 42.8353 42.1813H55.4775C55.5226 41.8868 55.5455 41.5982 55.5455 41.3155C55.5455 41.0328 55.5455 40.7783 55.5455 40.5518C55.5455 38.9446 55.1837 37.5127 54.4592 36.2569C53.734 35.0004 52.7276 34.0102 51.4378 33.2858ZM42.9426 39.3294C43.0358 38.8654 43.1787 38.4517 43.374 38.0899C43.7477 37.4002 44.2568 36.8851 44.9021 36.5455C45.5467 36.2066 46.2541 36.0364 47.0237 36.0364C48.0427 36.0364 48.8959 36.3368 49.5871 36.9369C50.2767 37.5363 50.6564 38.3348 50.7237 39.3301H42.9426V39.3294Z"
          fill="white"/>
    <path d="M63.794 36.8506C64.4052 36.4666 65.0838 36.2741 65.8305 36.2741C66.6674 36.2741 67.3926 36.4895 68.0031 36.9187C68.6144 37.3486 69.0221 37.9258 69.2256 38.6503H74.2502C73.8203 36.636 72.8583 35.0569 71.3649 33.9143C69.8716 32.7717 68.0379 32.1997 65.8653 32.1997C64.1226 32.1997 62.5834 32.5786 61.2484 33.3364C59.9127 34.0949 58.8663 35.1353 58.1078 36.4591C57.3493 37.783 56.9705 39.3052 56.9705 41.0257C56.9705 42.7462 57.3493 44.2676 58.1078 45.5922C58.8656 46.9161 59.9127 47.9573 61.2484 48.715C62.5834 49.4728 64.1226 49.8531 65.8653 49.8531C68.0379 49.8531 69.8768 49.2649 71.382 48.0875C72.8864 46.9109 73.8432 45.3488 74.2502 43.4018H69.2256C69.0221 44.1714 68.6151 44.7656 68.0031 45.1838C67.3926 45.6026 66.6674 45.812 65.8305 45.812C65.0838 45.812 64.4052 45.6204 63.794 45.2348C63.1835 44.85 62.7018 44.2965 62.351 43.5713C62.0002 42.8476 61.8249 41.9988 61.8249 41.0257C61.8249 40.0304 62.0002 39.1809 62.351 38.4801C62.7018 37.7793 63.1828 37.2362 63.794 36.8506Z"
          fill="white"/>
    <path d="M72.1432 17.6387C72.1432 18.8375 72.4481 19.7373 73.0586 20.336C73.6683 20.9354 74.5941 21.2351 75.8365 21.2351H77.9559V19.8542H75.9653C75.2157 19.8542 74.6488 19.6833 74.2633 19.3407C73.8778 18.9988 73.6854 18.4098 73.6854 17.5743V5.59667H77.9566V4.21583H73.6854V0.233887H72.1439V4.21583H69.3179V5.59667H72.1439V17.6387H72.1432Z"
          fill="white"/>
    <path d="M91.7304 4.21582V14.3953C91.7304 16.1727 91.2649 17.5795 90.3333 18.6177C89.4024 19.6567 88.1444 20.1754 86.56 20.1754C85.1037 20.1754 83.9959 19.7151 83.2367 18.7946C82.4767 17.874 82.0971 16.4939 82.0971 14.652V4.21582H80.5557V15.1656C80.5557 17.1784 81.0641 18.7568 82.0808 19.9023C83.0976 21.0479 84.4518 21.6206 86.1427 21.6206C87.7692 21.6206 89.1019 21.1981 90.1409 20.3523C90.929 19.7107 91.4847 18.8745 91.8103 17.8444L91.8584 21.2351H93.2711V4.21582H91.7304Z"
          fill="white"/>
    <path d="M84.1405 32.3457C83.0453 32.3457 81.9945 32.544 81.0229 32.9059C77.607 34.175 75.1665 37.4672 75.1665 41.3212C75.1665 42.4008 75.3626 43.4679 75.7385 44.4721C75.9095 44.9257 76.1167 45.3675 76.3594 45.7915C76.3742 45.8174 76.3875 45.8426 76.403 45.8685L76.4208 45.8966C76.483 46.0017 76.5525 46.1104 76.6228 46.2214L77.2518 47.2286L78.6223 49.4249L78.6956 49.5411L79.4592 50.7658C79.5651 50.7761 79.6724 50.7872 79.7797 50.7969C80.0631 50.825 80.3495 50.8479 80.6432 50.8679C80.7187 50.8746 80.7949 50.879 80.8719 50.8834C81.2079 50.9071 81.549 50.9256 81.8983 50.9389C82.585 50.9693 83.2991 50.9826 84.0428 50.9826C84.8612 50.9826 85.6397 50.9656 86.3849 50.9323C86.7098 50.9175 87.0287 50.9012 87.3432 50.8797C87.4335 50.8738 87.5238 50.8694 87.614 50.8627C87.9863 50.8383 88.3503 50.808 88.7063 50.7732C88.7455 50.7687 88.7847 50.765 88.8225 50.7606L89.5839 49.5396L91.0247 47.2308L91.6559 46.22C91.7284 46.1097 91.7965 46.0002 91.8587 45.8951L91.8757 45.867C91.8912 45.8411 91.906 45.8159 91.9194 45.79C92.7015 44.4329 93.113 42.8877 93.113 41.3197C93.113 40.1394 92.8843 39.0131 92.4692 37.9808C91.1416 34.6819 87.9093 32.3457 84.1405 32.3457ZM88.3489 43.4324C87.6459 44.831 86.268 45.83 84.6429 46.0031C84.4779 46.0202 84.3107 46.029 84.1412 46.029C83.0941 46.029 82.1262 45.6864 81.3425 45.1092C80.6262 44.5794 80.0646 43.849 79.7397 43.0024C79.5392 42.4807 79.4311 41.9124 79.4311 41.3204C79.4311 40.892 79.4888 40.4783 79.5961 40.0846C79.9595 38.7393 80.9052 37.6345 82.1447 37.0521C82.75 36.7679 83.4271 36.6096 84.1412 36.6096C85.6945 36.6096 87.0731 37.3614 87.9308 38.5225C88.1676 38.8436 88.3659 39.1959 88.5154 39.5733C88.7329 40.1127 88.8513 40.7033 88.8513 41.3212C88.8506 42.0797 88.6693 42.7967 88.3489 43.4324Z"
          fill="white"/>
</svg>
