<svg xmlns="http://www.w3.org/2000/svg" width="111" height="111" viewBox="0 0 111 111" fill="none">
    <path d="M102.243 79.4188C102.243 79.7192 101.855 79.973 101.104 80.1788C101.017 80.2017 100.93 80.2254 100.835 80.2424C100.558 80.3046 100.258 80.3682 99.9335 80.4244C99.1513 80.5502 98.2248 80.6531 97.1496 80.7323C97.046 80.7397 96.9409 80.7471 96.8359 80.7537C96.4703 80.7774 96.0959 80.7981 95.7125 80.8152C95.62 80.8203 95.5275 80.8233 95.4343 80.8277C94.3754 80.8744 93.252 80.898 92.0421 80.898C90.8885 80.898 89.8044 80.8773 88.781 80.8292C88.7018 80.8263 88.6241 80.8233 88.5464 80.8189C88.2452 80.8041 87.9499 80.7878 87.6591 80.7693C87.4689 80.7567 87.2795 80.7441 87.0915 80.7315C85.8972 80.645 84.8856 80.5258 84.0546 80.3675C83.8333 80.3283 83.6202 80.2883 83.4226 80.2417C83.3353 80.218 83.2561 80.201 83.1777 80.178C82.4177 79.9642 82.0388 79.7111 82.0388 79.418C82.0388 79.0865 82.4732 78.8172 83.3834 78.5959C83.4544 78.5804 83.5255 78.5633 83.6047 78.5478C83.8415 78.493 84.0938 78.4449 84.3632 78.3983C84.8567 78.314 85.4169 78.2437 86.0459 78.1822C86.3641 78.1519 86.6986 78.1238 87.0516 78.0971C87.0597 78.0964 87.0671 78.0964 87.0753 78.0949C87.7324 78.049 88.4198 78.0106 89.1391 77.9869C90.0878 77.9477 91.0846 77.9321 92.1361 77.9321C93.0774 77.9321 93.9706 77.9477 94.8245 77.9714C95.663 78.0024 96.4614 78.0416 97.2295 78.0971C97.2865 78.1016 97.3435 78.1053 97.3997 78.1097C97.7601 78.1371 98.102 78.1682 98.4269 78.2022C98.8509 78.2459 99.2446 78.2955 99.6094 78.351C100.005 78.4057 100.36 78.4775 100.685 78.5485C100.749 78.5641 100.812 78.5811 100.875 78.5966C101.785 78.8179 102.243 79.0873 102.243 79.4188Z" fill="#242F5F"/>
    <path d="M102.243 79.4188C102.243 79.7192 101.855 79.973 101.104 80.1788C101.017 80.2017 100.93 80.2254 100.835 80.2424C100.558 80.3046 100.258 80.3682 99.9335 80.4244C99.1513 80.5502 98.2248 80.6531 97.1496 80.7323C97.046 80.7397 96.9409 80.7471 96.8359 80.7537C96.4703 80.7774 96.0959 80.7981 95.7125 80.8152C95.62 80.8203 95.5275 80.8233 95.4343 80.8277C94.3754 80.8744 93.252 80.898 92.0421 80.898C90.8885 80.898 89.8044 80.8773 88.781 80.8292C88.7018 80.8263 88.6241 80.8233 88.5464 80.8189C88.2452 80.8041 87.9499 80.7878 87.6591 80.7693C87.4689 80.7567 87.2795 80.7441 87.0915 80.7315C85.8972 80.645 84.8856 80.5258 84.0546 80.3675C83.8333 80.3283 83.6202 80.2883 83.4226 80.2417C83.3353 80.218 83.2561 80.201 83.1777 80.178C82.4177 79.9642 82.0388 79.7111 82.0388 79.418C82.0388 79.0865 82.4732 78.8172 83.3834 78.5959C83.4544 78.5804 83.5255 78.5633 83.6047 78.5478C83.8415 78.493 84.0938 78.4449 84.3632 78.3983C84.8567 78.314 85.4169 78.2437 86.0459 78.1822C86.3641 78.1519 86.6986 78.1238 87.0516 78.0971C87.0597 78.0964 87.0671 78.0964 87.0753 78.0949C87.7324 78.049 88.4198 78.0106 89.1391 77.9869C90.0878 77.9477 91.0846 77.9321 92.1361 77.9321C93.0774 77.9321 93.9706 77.9477 94.8245 77.9714C95.663 78.0024 96.4614 78.0416 97.2295 78.0971C97.2865 78.1016 97.3435 78.1053 97.3997 78.1097C97.7601 78.1371 98.102 78.1682 98.4269 78.2022C98.8509 78.2459 99.2446 78.2955 99.6094 78.351C100.005 78.4057 100.36 78.4775 100.685 78.5485C100.749 78.5641 100.812 78.5811 100.875 78.5966C101.785 78.8179 102.243 79.0873 102.243 79.4188Z" fill="white"/>
    <path d="M11.6423 46.1079C11.6423 47.5798 11.8458 48.7053 12.2528 49.486C12.6598 50.2674 13.2652 50.7936 14.0695 51.0644C14.8724 51.336 15.8626 51.4722 17.0399 51.4722H20.435V47.4318H18.4318C17.9109 47.4318 17.498 47.3814 17.1923 47.2793C16.8867 47.1779 16.6773 46.9907 16.5641 46.7199C16.4509 46.4483 16.3946 46.0524 16.3946 45.5314V38.6058H20.5364V34.6335H16.3946V30.0166H11.6416V34.6335H8.75635V38.6058H11.6416V46.1079H11.6423Z" fill="white"/>
    <path d="M32.7587 49.232C33.1435 50.1148 33.7437 50.7091 34.5584 51.014C35.3732 51.3196 36.3914 51.472 37.6139 51.472H38.6662V47.4997H38.53C38.1681 47.4997 37.8736 47.4434 37.6472 47.3302C37.4207 47.2177 37.2572 46.9514 37.1551 46.5325C37.053 46.1144 37.0026 45.475 37.0026 44.6144V41.1179C37.0026 38.9001 36.273 37.1967 34.813 36.009C33.353 34.8205 31.3557 34.2271 28.8205 34.2271C27.5306 34.2271 26.3533 34.4476 25.2899 34.8886C24.2258 35.3297 23.36 35.9705 22.6933 36.8067C22.025 37.6444 21.624 38.6634 21.4878 39.8629H25.9352C26.0936 39.1384 26.4443 38.6404 26.9875 38.3696C27.5306 38.098 28.1419 37.9618 28.8205 37.9618C29.8165 37.9618 30.6372 38.2112 31.2817 38.7085C31.927 39.2065 32.2489 40.0101 32.2489 41.1194V41.9341C31.8189 41.798 31.2588 41.6626 30.5683 41.5264C29.8772 41.391 29.0462 41.3236 28.0731 41.3236C26.0366 41.3236 24.3901 41.8039 23.1336 42.7659C21.877 43.7286 21.2488 45.0806 21.2488 46.8226C21.2488 47.7505 21.4915 48.6001 21.9784 49.3689C22.4646 50.1378 23.1609 50.749 24.0667 51.2012C24.9717 51.654 26.0469 51.8805 27.2916 51.8805C28.4912 51.8805 29.5545 51.6311 30.4832 51.1331C31.4119 50.6351 32.1697 50.0009 32.7587 49.232ZM28.4127 48.2811C27.6883 48.2811 27.1111 48.1057 26.6819 47.755C26.2512 47.4042 26.0366 46.9573 26.0366 46.4141C26.0366 45.7577 26.2852 45.2538 26.7832 44.903C27.2813 44.553 27.8807 44.3769 28.5829 44.3769C29.1942 44.3769 29.7995 44.439 30.3989 44.5634C30.9983 44.6884 31.5244 44.8187 31.9773 44.9541C31.8189 45.5883 31.5814 46.1588 31.2647 46.6687C30.9472 47.1778 30.5572 47.5737 30.0933 47.8571C29.6293 48.1398 29.0691 48.2811 28.4127 48.2811Z" fill="white"/>
    <path d="M49.762 51.88C51.3234 51.88 52.7264 51.5004 53.9711 50.7419C55.2158 49.9841 56.2 48.937 56.9244 47.6021C57.6489 46.2671 58.0108 44.7619 58.0108 43.0866C58.0108 41.3898 57.6489 39.8735 56.9244 38.5378C56.2 37.2028 55.2158 36.1506 53.9711 35.3802C52.7264 34.6114 51.3234 34.2266 49.762 34.2266C48.3811 34.2266 47.2549 34.4974 46.3839 35.0413C45.5122 35.5845 44.8055 36.2179 44.2623 36.9416V34.6336H39.5093V62.5279H44.2623V49.3004C44.8506 50.1151 45.6032 50.7485 46.52 51.2007C47.4369 51.6528 48.5173 51.88 49.762 51.88ZM44.7041 45.4642C44.3185 44.7627 44.1269 43.9598 44.1269 43.0533C44.1269 42.1483 44.3185 41.3446 44.7041 40.6424C45.0889 39.9408 45.6202 39.3866 46.2995 38.9796C46.9781 38.5718 47.7588 38.3691 48.6416 38.3691C49.5244 38.3691 50.3103 38.5718 51.0007 38.9796C51.6904 39.3866 52.2284 39.9468 52.6132 40.6601C52.998 41.3727 53.1904 42.1823 53.1904 43.0866C53.1904 43.9694 52.998 44.7627 52.6132 45.4635C52.2277 46.165 51.6904 46.7192 51.0007 47.1262C50.3096 47.534 49.5237 47.7367 48.6416 47.7367C47.7588 47.7367 46.9781 47.534 46.2995 47.1262C45.6202 46.72 45.0889 46.165 44.7041 45.4642Z" fill="white"/>
    <path d="M70.0588 49.232C70.4436 50.1148 71.0437 50.7091 71.8585 51.014C72.6732 51.3196 73.6914 51.472 74.9139 51.472H75.9662V47.4997H75.83C75.4682 47.4997 75.1737 47.4434 74.9472 47.3302C74.7208 47.2177 74.5572 46.9514 74.4551 46.5325C74.353 46.1144 74.3027 45.475 74.3027 44.6144V41.1179C74.3027 38.9001 73.573 37.1967 72.113 36.009C70.653 34.8205 68.6557 34.2271 66.1205 34.2271C64.8307 34.2271 63.6533 34.4476 62.59 34.8886C61.5258 35.3297 60.66 35.9705 59.9933 36.8067C59.3251 37.6444 58.924 38.6634 58.7878 39.8629H63.2352C63.3936 39.1384 63.7444 38.6404 64.2875 38.3696C64.8307 38.098 65.4419 37.9618 66.1205 37.9618C67.1165 37.9618 67.9372 38.2112 68.5817 38.7085C69.227 39.2065 69.5489 40.0101 69.5489 41.1194V41.9341C69.119 41.798 68.5588 41.6626 67.8684 41.5264C67.1772 41.391 66.3462 41.3236 65.3731 41.3236C63.3366 41.3236 61.6901 41.8039 60.4336 42.7659C59.1771 43.7286 58.5488 45.0806 58.5488 46.8226C58.5488 47.7505 58.7915 48.6001 59.2785 49.3689C59.7646 50.1378 60.461 50.749 61.3667 51.2012C62.2718 51.654 63.347 51.8805 64.5917 51.8805C65.7912 51.8805 66.8546 51.6311 67.7833 51.1331C68.712 50.6351 69.4697 50.0009 70.0588 49.232ZM65.7135 48.2811C64.989 48.2811 64.4118 48.1057 63.9826 47.755C63.552 47.4042 63.3374 46.9573 63.3374 46.4141C63.3374 45.7577 63.586 45.2538 64.084 44.903C64.582 44.553 65.1814 44.3769 65.8837 44.3769C66.4949 44.3769 67.1003 44.439 67.6997 44.5634C68.2991 44.6884 68.8252 44.8187 69.2781 44.9541C69.1197 45.5883 68.8822 46.1588 68.5655 46.6687C68.248 47.1778 67.858 47.5737 67.394 47.8571C66.9301 48.1398 66.3699 48.2811 65.7135 48.2811Z" fill="white"/>
    <path d="M19.3791 62.2002C18.1337 62.2002 17.0304 62.4599 16.0691 62.9809C15.1071 63.5018 14.3545 64.2033 13.8114 65.0862V55.0029H9.05835V79.4459H13.8114V70.7546C13.8114 69.3293 14.1851 68.2142 14.9317 67.4105C15.6784 66.6076 16.6293 66.2058 17.7829 66.2058C18.9825 66.2058 19.8535 66.5736 20.3974 67.3091C20.9405 68.0447 21.2121 69.1021 21.2121 70.483V79.4451H25.9311V70.042C25.9311 67.5075 25.365 65.5664 24.2335 64.2196C23.1013 62.8736 21.4837 62.2002 19.3791 62.2002Z" fill="white"/>
    <path d="M39.4423 71.2987C39.4423 72.724 39.1307 73.8399 38.5084 74.6428C37.886 75.4464 37.0091 75.8475 35.8777 75.8475C34.8365 75.8475 34.0558 75.4805 33.5356 74.7442C33.0146 74.0093 32.7549 72.9511 32.7549 71.5703V62.6074H28.0359V72.0106C28.0359 74.5458 28.5901 76.4861 29.6994 77.8329C30.8079 79.1805 32.3353 79.8531 34.2822 79.8531C35.5269 79.8531 36.574 79.5978 37.4228 79.0887C38.2716 78.5796 38.945 77.8951 39.443 77.0345V79.4454H44.1953V64.3975H39.4423V71.2987Z" fill="white"/>
    <path d="M59.4378 63.2858C58.148 62.5621 56.665 62.2002 54.9904 62.2002C53.2248 62.2002 51.6745 62.585 50.3395 63.3539C49.0038 64.1235 47.9685 65.1876 47.233 66.5447C46.4974 67.9034 46.1296 69.4537 46.1296 71.1956C46.1296 72.8932 46.5033 74.3932 47.25 75.6941C47.9967 76.9958 49.0371 78.0147 50.3728 78.7503C51.7078 79.4851 53.247 79.8536 54.9897 79.8536C56.3476 79.8536 57.5752 79.5983 58.6734 79.0892C59.7708 78.5801 60.6988 77.8897 61.4573 77.0187C62.215 76.1477 62.7523 75.1687 63.0697 74.0816H58.2153C57.9208 74.6477 57.502 75.1058 56.9595 75.4566C56.4164 75.8073 55.7482 75.9827 54.9564 75.9827C54.1416 75.9827 53.4231 75.8073 52.8007 75.4566C52.1777 75.1058 51.6915 74.6085 51.3407 73.9632C51.0558 73.4401 50.8893 72.8451 50.8353 72.1813H63.4775C63.5226 71.8868 63.5455 71.5982 63.5455 71.3155C63.5455 71.0328 63.5455 70.7783 63.5455 70.5518C63.5455 68.9446 63.1837 67.5127 62.4592 66.2569C61.734 65.0004 60.7276 64.0102 59.4378 63.2858ZM50.9426 69.3294C51.0358 68.8654 51.1787 68.4517 51.374 68.0899C51.7477 67.4002 52.2568 66.8851 52.9021 66.5455C53.5467 66.2066 54.2541 66.0364 55.0237 66.0364C56.0427 66.0364 56.8959 66.3368 57.5871 66.9369C58.2767 67.5363 58.6564 68.3348 58.7237 69.3301H50.9426V69.3294Z" fill="white"/>
    <path d="M71.794 66.8506C72.4052 66.4666 73.0838 66.2741 73.8305 66.2741C74.6674 66.2741 75.3926 66.4895 76.0031 66.9187C76.6144 67.3486 77.0221 67.9258 77.2256 68.6503H82.2502C81.8203 66.636 80.8583 65.0569 79.3649 63.9143C77.8716 62.7717 76.0379 62.1997 73.8653 62.1997C72.1226 62.1997 70.5834 62.5786 69.2484 63.3364C67.9127 64.0949 66.8663 65.1353 66.1078 66.4591C65.3493 67.783 64.9705 69.3052 64.9705 71.0257C64.9705 72.7462 65.3493 74.2676 66.1078 75.5922C66.8656 76.9161 67.9127 77.9573 69.2484 78.715C70.5834 79.4728 72.1226 79.8531 73.8653 79.8531C76.0379 79.8531 77.8768 79.2649 79.382 78.0875C80.8864 76.9109 81.8432 75.3488 82.2502 73.4018H77.2256C77.0221 74.1714 76.6151 74.7656 76.0031 75.1838C75.3926 75.6026 74.6674 75.812 73.8305 75.812C73.0838 75.812 72.4052 75.6204 71.794 75.2348C71.1835 74.85 70.7018 74.2965 70.351 73.5713C70.0002 72.8476 69.8249 71.9988 69.8249 71.0257C69.8249 70.0304 70.0002 69.1809 70.351 68.4801C70.7018 67.7793 71.1828 67.2362 71.794 66.8506Z" fill="white"/>
    <path d="M80.1432 47.6387C80.1432 48.8375 80.4481 49.7373 81.0586 50.336C81.6683 50.9354 82.5941 51.2351 83.8365 51.2351H85.9559V49.8542H83.9653C83.2157 49.8542 82.6488 49.6833 82.2633 49.3407C81.8778 48.9988 81.6854 48.4098 81.6854 47.5743V35.5967H85.9566V34.2158H81.6854V30.2339H80.1439V34.2158H77.3179V35.5967H80.1439V47.6387H80.1432Z" fill="white"/>
    <path d="M99.7304 34.2158V44.3953C99.7304 46.1727 99.2649 47.5795 98.3333 48.6177C97.4024 49.6567 96.1444 50.1754 94.56 50.1754C93.1037 50.1754 91.9959 49.7151 91.2367 48.7946C90.4767 47.874 90.0971 46.4939 90.0971 44.652V34.2158H88.5557V45.1656C88.5557 47.1784 89.0641 48.7568 90.0808 49.9023C91.0976 51.0479 92.4518 51.6206 94.1427 51.6206C95.7692 51.6206 97.1019 51.1981 98.1409 50.3523C98.929 49.7107 99.4847 48.8745 99.8103 47.8444L99.8584 51.2351H101.271V34.2158H99.7304Z" fill="white"/>
    <path d="M92.1405 62.3457C91.0453 62.3457 89.9945 62.544 89.0229 62.9059C85.607 64.175 83.1665 67.4672 83.1665 71.3212C83.1665 72.4008 83.3626 73.4679 83.7385 74.4721C83.9095 74.9257 84.1167 75.3675 84.3594 75.7915C84.3742 75.8174 84.3875 75.8426 84.403 75.8685L84.4208 75.8966C84.483 76.0017 84.5525 76.1104 84.6228 76.2214L85.2518 77.2286L86.6223 79.4249L86.6956 79.5411L87.4592 80.7658C87.5651 80.7761 87.6724 80.7872 87.7797 80.7969C88.0631 80.825 88.3495 80.8479 88.6432 80.8679C88.7187 80.8746 88.7949 80.879 88.8719 80.8834C89.2079 80.9071 89.549 80.9256 89.8983 80.9389C90.585 80.9693 91.2991 80.9826 92.0428 80.9826C92.8612 80.9826 93.6397 80.9656 94.3849 80.9323C94.7098 80.9175 95.0287 80.9012 95.3432 80.8797C95.4335 80.8738 95.5238 80.8694 95.614 80.8627C95.9863 80.8383 96.3503 80.808 96.7063 80.7732C96.7455 80.7687 96.7847 80.765 96.8225 80.7606L97.5839 79.5396L99.0247 77.2308L99.6559 76.22C99.7284 76.1097 99.7965 76.0002 99.8587 75.8951L99.8757 75.867C99.8912 75.8411 99.906 75.8159 99.9194 75.79C100.702 74.4329 101.113 72.8877 101.113 71.3197C101.113 70.1394 100.884 69.0131 100.469 67.9808C99.1416 64.6819 95.9093 62.3457 92.1405 62.3457ZM96.3489 73.4324C95.6459 74.831 94.268 75.83 92.6429 76.0031C92.4779 76.0202 92.3107 76.029 92.1412 76.029C91.0941 76.029 90.1262 75.6864 89.3425 75.1092C88.6262 74.5794 88.0646 73.849 87.7397 73.0024C87.5392 72.4807 87.4311 71.9124 87.4311 71.3204C87.4311 70.892 87.4888 70.4783 87.5961 70.0846C87.9595 68.7393 88.9052 67.6345 90.1447 67.0521C90.75 66.7679 91.4271 66.6096 92.1412 66.6096C93.6945 66.6096 95.0731 67.3614 95.9308 68.5225C96.1676 68.8436 96.3659 69.1959 96.5154 69.5733C96.7329 70.1127 96.8513 70.7033 96.8513 71.3212C96.8506 72.0797 96.6693 72.7967 96.3489 73.4324Z" fill="white"/>
</svg>