<svg
        fill="none"
        height="75"
        viewBox="0 0 75 75"
        width="75"
        xmlns="http://www.w3.org/2000/svg"
>
    <circle
            cx="37.5"
            cy="37.5"
            fill="#E42521"
            r="37.5"
    />
    <path
            d="M57.9868 53.4802C57.9868 54.1044 57.1812 54.6311 55.6201 55.0587C55.4387 55.1062 55.2594 55.1562 55.0608 55.1904C54.4865 55.3202 53.8623 55.452 53.1885 55.5684C51.5624 55.83 49.6383 56.0436 47.4033 56.2076L46.7512 56.2532C45.9907 56.3028 45.2126 56.3451 44.4168 56.3803C44.2244 56.3913 44.0325 56.3976 43.8382 56.4062C41.6355 56.5034 39.303 56.5533 36.7892 56.5533C34.3923 56.5533 32.14 56.5101 30.0129 56.4105C29.8489 56.4042 29.6868 56.3976 29.5248 56.3889C28.8986 56.359 28.2854 56.3244 27.6808 56.2855L26.5008 56.2068C24.0197 56.028 21.9164 55.7761 20.191 55.4512C19.7308 55.369 19.2883 55.2868 18.878 55.1896C18.6963 55.1401 18.5323 55.1055 18.3667 55.0579C16.7881 54.6121 15.9992 54.0859 16 53.4794C16 52.7907 16.9027 52.2314 18.7927 51.7712C18.9394 51.7389 19.0885 51.7043 19.2525 51.6721C19.7449 51.5576 20.2696 51.4581 20.829 51.3609C21.8548 51.1863 23.0186 51.0392 24.3253 50.9117C24.9861 50.8492 25.6815 50.791 26.4155 50.7347C26.4328 50.7347 26.4481 50.7347 26.4654 50.7304C27.8299 50.6356 29.2581 50.5554 30.7528 50.5058C32.7245 50.424 34.7954 50.3914 36.9808 50.3914C38.9372 50.3914 40.7922 50.424 42.5661 50.4736C44.309 50.5381 45.9673 50.6203 47.5634 50.7347L47.9174 50.7607C48.6669 50.8168 49.378 50.8809 50.0509 50.953C50.9319 51.0435 51.7511 51.1464 52.5084 51.2618C53.3289 51.3763 54.0699 51.5249 54.7437 51.6721C54.8751 51.7043 55.0069 51.7389 55.1371 51.7712C57.0345 52.2322 57.9868 52.7915 57.9868 53.4802Z"
            fill="#242F5F"
    />
    <path
            d="M36.9938 18C34.7826 17.9986 32.5889 18.3926 30.5164 19.1635C23.4175 21.8008 18.3467 28.6428 18.3467 36.6495C18.349 39.9088 19.2044 43.1107 20.8278 45.9369C20.8577 45.99 20.8856 46.0435 20.9183 46.0966L20.9553 46.1548C21.0851 46.3723 21.2306 46.5997 21.3746 46.829L22.682 48.9219L25.5301 53.4846L25.6831 53.7257L27.2706 56.2705C27.4909 56.2914 27.7131 56.3146 27.9358 56.3354C28.5258 56.3933 29.1201 56.442 29.7294 56.4837C29.8867 56.4975 30.044 56.5069 30.2045 56.516C30.9023 56.5648 31.6115 56.6041 32.3368 56.634C33.7646 56.6964 35.2502 56.7266 36.7936 56.7245C38.4944 56.7245 40.1122 56.6894 41.6603 56.6198C42.3349 56.5899 42.9977 56.5549 43.651 56.5109C43.839 56.4995 44.0266 56.49 44.2142 56.4763C44.9883 56.4238 45.7446 56.3621 46.483 56.291C46.5644 56.2816 46.6454 56.2745 46.7241 56.2654L48.3073 53.7276L51.3013 48.929L52.6131 46.8294C52.7637 46.6001 52.9049 46.3727 53.0347 46.1552L53.0697 46.097C53.102 46.0439 53.1323 45.9904 53.1602 45.9373C54.5637 43.4942 55.3954 40.7649 55.593 37.9543C55.7905 35.1437 55.3488 32.3249 54.3009 29.7095C51.5413 22.8553 44.8251 18 36.9938 18ZM45.738 41.0391C45.0035 42.5025 43.9137 43.7583 42.5683 44.6916C41.2229 45.6248 39.6649 46.2057 38.0369 46.381C37.6904 46.4163 37.3422 46.4341 36.9938 46.4345C34.8618 46.4359 32.7875 45.7415 31.086 44.4569C29.3844 43.1722 28.1486 41.3674 27.566 39.3165C26.9835 37.2656 27.0861 35.0806 27.8583 33.0933C28.6304 31.106 30.03 29.425 31.8444 28.3054C33.6589 27.1859 35.7891 26.689 37.9116 26.8902C40.0341 27.0914 42.033 27.9797 43.6048 29.4202C45.1766 30.8608 46.2353 32.7749 46.6203 34.8719C47.0053 36.9688 46.6956 39.1342 45.738 41.0391Z"
            fill="white"
    />
</svg>
